<?xml version="1.0" encoding="UTF-8"?>
<svg version="1.1" xmlns="http://www.w3.org/2000/svg" width="473" height="528">
<path d="M0 0 C1.43279297 0.53173828 1.43279297 0.53173828 2.89453125 1.07421875 C18.57806032 7.18886415 32.83645104 15.57724862 46 26 C46.53657227 26.41701172 47.07314453 26.83402344 47.62597656 27.26367188 C53.05374841 31.48564749 57.72841437 35.63000663 62 41 C62.92554688 41.74765625 63.85109375 42.4953125 64.8046875 43.265625 C68.14154624 45.99924137 70.70280761 49.08202123 73.3125 52.5 C74.01753662 53.41096436 74.01753662 53.41096436 74.73681641 54.34033203 C79.38641549 60.40222918 83.78795347 66.6262994 88 73 C88.59131714 73.89029907 88.59131714 73.89029907 89.19458008 74.79858398 C105.13965076 99.44999215 113.25860053 129.82754277 114 159 C114.03996094 159.95003906 114.07992188 160.90007812 114.12109375 161.87890625 C114.74665439 187.74767842 109.23045496 213.71815038 98 237 C97.33871094 238.41732422 97.33871094 238.41732422 96.6640625 239.86328125 C91.19872294 251.26198669 84.38767129 261.48468952 76.5625 271.375 C76.04220215 272.03604736 75.5219043 272.69709473 74.98583984 273.37817383 C73.70671709 274.96011361 72.35905099 276.48617409 71 278 C70.34 278 69.68 278 69 278 C68.73832031 278.5775 68.47664063 279.155 68.20703125 279.75 C65.20036413 285.35466103 60.21701275 290.42261983 55 294 C54.34 294 53.68 294 53 294 C52.73662842 294.60593994 52.47325684 295.21187988 52.2019043 295.83618164 C50.92679036 298.13180114 49.88740456 299.11385358 47.76953125 300.62109375 C47.13080078 301.08193359 46.49207031 301.54277344 45.83398438 302.01757812 C45.16689453 302.48615234 44.49980469 302.95472656 43.8125 303.4375 C42.84086914 304.13456055 42.84086914 304.13456055 41.84960938 304.84570312 C40.54735307 305.77848811 39.24200549 306.70697256 37.93359375 307.63110352 C36.65522781 308.53612849 35.38166886 309.44798603 34.11328125 310.36694336 C28.96596558 314.09500321 23.66058019 317.10037095 18 320 C17.28038086 320.37318359 16.56076172 320.74636719 15.81933594 321.13085938 C-17.1100524 338.05982158 -50.67305372 342.15612826 -87.2109375 342.16796875 C-89.5521344 342.17118716 -91.8933311 342.17455166 -94.23452759 342.17805481 C-99.11778226 342.18401325 -104.0010193 342.18589783 -108.88427734 342.18530273 C-115.13509367 342.18520067 -121.38579755 342.19891346 -127.63658714 342.21607494 C-132.46131917 342.2271939 -137.28602384 342.22922206 -142.11076736 342.22869301 C-144.41600562 342.22987094 -146.72124463 342.23428221 -149.02647018 342.24202538 C-152.24477841 342.25183397 -155.46284006 342.24894493 -158.68115234 342.24291992 C-159.62674011 342.24853943 -160.57232788 342.25415894 -161.54656982 342.25994873 C-166.75737773 342.23518858 -171.06616182 341.70185907 -176 340 C-177.60496653 331.77580975 -178.33850641 323.87406485 -178.3125 315.5 C-178.32861328 314.46230469 -178.34472656 313.42460937 -178.36132812 312.35546875 C-178.36812242 301.44382469 -175.84915176 291.74753348 -171 282 C-170.34 282 -169.68 282 -169 282 C-168.79375 281.319375 -168.5875 280.63875 -168.375 279.9375 C-164.53588356 271.73575125 -157.38731609 266.8786177 -150 262 C-149.37609375 261.58621094 -148.7521875 261.17242187 -148.109375 260.74609375 C-135.73733854 253.64053227 -120.2714315 253.41654427 -106.4375 253.4609375 C-104.70889058 253.4509885 -102.98029171 253.43903171 -101.25170898 253.42520142 C-96.74730852 253.39319618 -92.24315037 253.38248138 -87.73864746 253.37835693 C-80.53415244 253.36952593 -73.3298529 253.33340838 -66.1255188 253.2861824 C-63.64601766 253.2738528 -61.16678055 253.27433212 -58.68725586 253.27645874 C-40.00209529 253.22948465 -19.09442065 252.12989626 -2 244 C-0.97712891 243.53787109 -0.97712891 243.53787109 0.06640625 243.06640625 C4.73019655 240.86684957 8.90381881 238.13738189 13.1171875 235.171875 C15 234 15 234 17 234 C17.33 233.01 17.66 232.02 18 231 C19.56640625 229.5625 19.56640625 229.5625 21.5625 228 C27.05405862 223.37083416 31.7774665 217.44506701 35 211 C35.66 211 36.32 211 37 211 C37.103125 210.319375 37.20625 209.63875 37.3125 208.9375 C37.98293099 206.07293123 38.99295759 203.55170149 40.17993164 200.86669922 C42.89357208 194.68971356 44.64547883 188.83199299 45.6875 182.1875 C45.8127002 181.3927124 45.93790039 180.5979248 46.06689453 179.77905273 C49.40570898 157.48622023 44.2096315 135.33807667 31 117 C26.84669794 111.90150398 22.48960931 106.65973954 17 103 C17 102.34 17 101.68 17 101 C15.68 100.67 14.36 100.34 13 100 C13 99.34 13 98.68 13 98 C12.175 97.773125 11.35 97.54625 10.5 97.3125 C7.67113436 96.25167538 5.87400298 95.33252749 3.4375 93.6875 C-31.29192151 71.61646577 -89.68043041 78.10735856 -128.9375 81.25 C-130.02357544 81.33173965 -130.02357544 81.33173965 -131.1315918 81.41513062 C-140.85354111 82.17338344 -149.72700304 83.97930144 -159 87 C-160.02488525 87.3302417 -161.04977051 87.6604834 -162.10571289 88.00073242 C-167.73119604 89.86065811 -172.59330018 92.33515834 -177.59375 95.5 C-179.89105395 96.93208558 -182.22483742 98.1881003 -184.625 99.4375 C-188.72530966 101.66608749 -191.99202251 104.44294658 -195.37109375 107.64453125 C-197 109 -197 109 -199 109 C-199.99 110.98 -199.99 110.98 -201 113 C-201.66 113 -202.32 113 -203 113 C-203.99 114.98 -203.99 114.98 -205 117 C-205.66 117 -206.32 117 -207 117 C-207.33 118.32 -207.66 119.64 -208 121 C-208.66 121 -209.32 121 -210 121 C-210.33 122.32 -210.66 123.64 -211 125 C-211.66 125 -212.32 125 -213 125 C-213.24878906 125.66515625 -213.49757813 126.3303125 -213.75390625 127.015625 C-214.99460206 129.98707202 -216.39650784 132.8101428 -217.8684082 135.67114258 C-221.12317235 142.00005711 -224.06696168 148.13245613 -226 155 C-226.36171799 156.22395021 -226.36171799 156.22395021 -226.73074341 157.47262669 C-228.48199558 163.5701384 -229.67576982 169.42285261 -230.1796875 175.74389648 C-230.25967987 176.74143416 -230.33967224 177.73897184 -230.42208862 178.76673794 C-231.66511373 197.04341461 -231.21074502 215.43245969 -231.13692474 233.73880315 C-231.11672259 239.42916156 -231.1098939 245.11953471 -231.10205078 250.80992126 C-231.08001682 265.22748337 -231.0408977 279.64498094 -231 294.0625 C-230.95580574 309.66663818 -230.91472436 325.2707505 -230.89316368 340.87493891 C-230.88326453 347.61969098 -230.86364839 354.36432031 -230.83630371 361.10902321 C-230.82129214 365.31178887 -230.81473535 369.51453822 -230.8103714 373.71732712 C-230.80665673 375.65096346 -230.79951455 377.58459707 -230.78850555 379.51820564 C-230.67446166 400.21471448 -230.99850834 419.77195252 -245.65625 435.8125 C-253.69062032 443.3742603 -264.39091945 446.92759229 -275 449 C-276.38638672 449.30744141 -276.38638672 449.30744141 -277.80078125 449.62109375 C-289.06285358 451.7840083 -300.58458563 451.18144075 -312 451 C-316.64297799 435.88642888 -316.29130442 420.08807708 -316.25878906 404.43286133 C-316.26150564 402.21304714 -316.26507028 399.99323385 -316.26940918 397.77342224 C-316.27846312 391.78911158 -316.27501614 385.80487054 -316.26865101 379.82055879 C-316.26354632 373.51389027 -316.26829553 367.20722725 -316.27142334 360.90055847 C-316.27528541 349.62285645 -316.26910606 338.34518273 -316.25890467 327.06748738 C-316.24999961 316.91029178 -316.25150001 306.75314201 -316.26074219 296.59594727 C-316.27153126 284.73357237 -316.27538193 272.87121957 -316.26951766 261.00883883 C-316.26643193 254.75499958 -316.26589252 248.50119163 -316.27259064 242.24735451 C-316.34831851 159.90458031 -316.34831851 159.90458031 -304 125 C-303.54367187 123.6078125 -303.54367187 123.6078125 -303.078125 122.1875 C-299.0686288 110.37003752 -293.32164297 99.125358 -287.25 88.25 C-286.88559814 87.59491455 -286.52119629 86.9398291 -286.14575195 86.26489258 C-284.03587836 82.56091371 -281.68693633 79.29859663 -279 76 C-278.55140625 75.23429687 -278.1028125 74.46859375 -277.640625 73.6796875 C-275.32598409 69.89910735 -272.55096049 66.55409351 -269.75 63.125 C-268.92822266 62.10212891 -268.92822266 62.10212891 -268.08984375 61.05859375 C-264.31380691 56.41592551 -260.29038969 52.16709156 -256 48 C-255.14792969 47.14019531 -254.29585937 46.28039062 -253.41796875 45.39453125 C-250.76571076 42.76798173 -248.05832871 40.21605986 -245.3125 37.6875 C-244.35988281 36.80449219 -243.40726562 35.92148438 -242.42578125 35.01171875 C-240 33 -240 33 -238 33 C-238 32.34 -238 31.68 -238 31 C-180.58132803 -19.59787941 -68.96687941 -27.25792599 0 0 Z " fill="#76EC75" transform="translate(345,49)"/>
<path d="M0 0 C1.55931958 3.11863917 0.15388065 5.32632965 -0.8125 8.625 C-7.3304057 33.42302879 -5.23937096 60.33364826 -5.13692474 85.73880315 C-5.11672259 91.42916156 -5.1098939 97.11953471 -5.10205078 102.80992126 C-5.08001682 117.22748337 -5.0408977 131.64498094 -5 146.0625 C-4.95580574 161.66663818 -4.91472436 177.2707505 -4.89316368 192.87493891 C-4.88326453 199.61969098 -4.86364839 206.36432031 -4.83630371 213.10902321 C-4.82129214 217.31178887 -4.81473535 221.51453822 -4.8103714 225.71732712 C-4.80665673 227.65096346 -4.79951455 229.58459707 -4.78850555 231.51820564 C-4.71262095 245.28962521 -5.18855608 258.65994628 -9 272 C-9.33 272 -9.66 272 -10 272 C-10.02687279 270.18757948 -10.04633715 268.37504767 -10.0625 266.5625 C-10.07410156 265.55316406 -10.08570312 264.54382813 -10.09765625 263.50390625 C-10 261 -10 261 -9 260 C-8.75472692 257.07417924 -8.5744458 254.17155787 -8.44261169 251.23989868 C-8.40040353 250.34032114 -8.35819537 249.44074359 -8.31470817 248.51390612 C-7.89157912 238.72857258 -7.88154047 228.95410249 -7.91821289 219.16162109 C-7.92178098 217.16507037 -7.92486364 215.16851872 -7.92750549 213.17196655 C-7.93398823 208.91832748 -7.94350079 204.66471054 -7.95540047 200.41108322 C-7.97388761 193.67735016 -7.98334169 186.94362203 -7.99131775 180.20986938 C-8.01532902 161.07787809 -8.05144809 141.945919 -8.09594727 122.81396484 C-8.12052552 112.21271433 -8.13786577 101.61147595 -8.14750665 91.0102011 C-8.15402531 84.32261308 -8.16952967 77.63512652 -8.19182408 70.94757342 C-8.20358498 66.78874712 -8.20692315 62.62994516 -8.20792198 58.47110367 C-8.21006179 56.5498865 -8.21562691 54.62866948 -8.2249527 52.70747375 C-8.26763817 43.55749269 -8.28586859 34.92110463 -6 26 C-5.83477528 24.25333867 -5.70045318 22.50283537 -5.625 20.75 C-5.19782033 15.22830717 -4.10029485 4.10029485 0 0 Z " fill="#91DF8F" transform="translate(119,197)"/>
<path d="M0 0 C0.33 0 0.66 0 1 0 C1.33 35.64 1.66 71.28 2 108 C1.67 108 1.34 108 1 108 C-0.85344762 95.18255449 -1.28242171 82.62568142 -1.23046875 69.6875 C-1.22927338 67.69637075 -1.22882454 65.70524092 -1.2290802 63.71411133 C-1.22753077 59.58280812 -1.21935142 55.45159347 -1.20581055 51.3203125 C-1.18864346 46.01516914 -1.18500209 40.71012091 -1.18575573 35.404953 C-1.18548485 31.31306037 -1.18001984 27.22118868 -1.17275429 23.12930298 C-1.1695683 21.17078815 -1.16760037 19.21227095 -1.16686058 17.25375366 C-1.16470636 14.53761668 -1.15598755 11.8215836 -1.14526367 9.10546875 C-1.14571686 8.29420532 -1.14617004 7.48294189 -1.14663696 6.64709473 C-1.11449274 1.11449274 -1.11449274 1.11449274 0 0 Z " fill="#9EE59E" transform="translate(30,385)"/>
<path d="M0 0 C0 0.33 0 0.66 0 1 C-1.22106445 1.05534912 -2.44212891 1.11069824 -3.70019531 1.16772461 C-8.23277906 1.37425192 -12.76510102 1.58610366 -17.29736328 1.79956055 C-19.25855898 1.89118247 -21.21982259 1.98136254 -23.18115234 2.07006836 C-26.00116794 2.19786147 -28.82089821 2.33084691 -31.640625 2.46484375 C-32.51680481 2.50343002 -33.39298462 2.5420163 -34.29571533 2.58177185 C-35.52653839 2.64172081 -35.52653839 2.64172081 -36.78222656 2.70288086 C-37.50170471 2.73619003 -38.22118286 2.76949921 -38.96246338 2.80381775 C-41.05797185 3.00558176 -42.96500337 3.4735837 -45 4 C-46.89489655 4.12336521 -48.7930434 4.20059187 -50.69140625 4.24609375 C-52.35719727 4.29540039 -52.35719727 4.29540039 -54.05664062 4.34570312 C-56.36645518 4.40618295 -58.67635362 4.46355134 -60.98632812 4.51757812 C-67.33306929 4.71123229 -73.34449185 5.24414519 -79.55957031 6.57006836 C-83.40411257 7.24736317 -87.10607902 7.12766954 -91 7 C-91 6.67 -91 6.34 -91 6 C-60.90858564 -0.70869195 -30.65381682 -0.28521301 0 0 Z " fill="#A6E7A3" transform="translate(274,37)"/>
<path d="M0 0 C0.495 0.99 0.495 0.99 1 2 C0.0925 2.680625 -0.815 3.36125 -1.75 4.0625 C-4.15314781 6.03892063 -5.59205575 7.79433843 -7 10.5625 C-9.2330241 14.40051018 -11.2357616 15.757475 -15 18 C-17.43638232 20.10032958 -17.94893544 20.84680631 -19 24 C-19.99 24 -20.98 24 -22 24 C-22.33 26.64 -22.66 29.28 -23 32 C-23.9075 32.226875 -24.815 32.45375 -25.75 32.6875 C-29.51628476 34.20849961 -30.82501689 35.61669295 -33 39 C-33.77833534 41.18214568 -33.77833534 41.18214568 -34 43 C-35.98 43.495 -35.98 43.495 -38 44 C-34.97995182 37.72759224 -31.13511438 32.49350387 -26.75 27.125 C-26.20214844 26.44308594 -25.65429688 25.76117188 -25.08984375 25.05859375 C-21.31467248 20.41698973 -17.28691519 16.16872614 -13 12 C-12.195625 11.175 -11.39125 10.35 -10.5625 9.5 C-7.16660079 6.1869276 -3.59433047 3.09487015 0 0 Z " fill="#97E994" transform="translate(102,85)"/>
<path d="M0 0 C7.1944792 6.78844839 11.13949338 15.96258396 15.125 24.875 C15.55659424 25.83446533 15.98818848 26.79393066 16.43286133 27.7824707 C24.60663841 46.18008476 24.60663841 46.18008476 23 51 C21 50 21 50 20.18359375 48.00390625 C19.93738281 47.19824219 19.69117188 46.39257812 19.4375 45.5625 C18.40082993 42.20847148 18.40082993 42.20847148 17 39 C16.960008 37.00039988 16.95653201 34.99952758 17 33 C16.34 33 15.68 33 15 33 C14.67 31.02 14.34 29.04 14 27 C13.34 27 12.68 27 12 27 C11.89042969 26.36191406 11.78085937 25.72382813 11.66796875 25.06640625 C11.50941406 24.24011719 11.35085938 23.41382813 11.1875 22.5625 C11.03667969 21.73878906 10.88585937 20.91507813 10.73046875 20.06640625 C10.48941406 19.38449219 10.24835938 18.70257813 10 18 C9.01 17.67 8.02 17.34 7 17 C4.0799155 13.18142796 3.46359512 9.72867022 3 5 C2.01 4.67 1.02 4.34 0 4 C0 2.68 0 1.36 0 0 Z " fill="#96E296" transform="translate(428,116)"/>
<path d="M0 0 C1.09173756 3.31338532 0.86552745 5.50543385 0.0625 8.875 C-0.58024989 11.77160311 -0.99833994 14.08134303 -0.9375 17.0625 C-0.99812724 19.9119804 -1.45049788 21.44314821 -2.4375 24.0625 C-4.21808905 28.97160065 -4.48227672 33.69650398 -4.69140625 38.88671875 C-5.01815583 42.18316702 -5.89431962 44.88787259 -7 48 C-7.37531446 50.32694964 -7.71917202 52.65976685 -8 55 C-8.33 55 -8.66 55 -9 55 C-10.37011545 36.54911197 -5.68267592 17.46073606 0 0 Z " fill="#A2E9A0" transform="translate(40,176)"/>
<path d="M0 0 C17.54436555 -0.53075392 34.81283096 1.62113322 52 5 C52 5.33 52 5.66 52 6 C42.98534641 6.15108358 33.97068091 5.95987471 25 5 C24.67 4.67 24.34 4.34 24 4 C20.29188188 3.76137749 16.59033243 3.60451374 12.87695312 3.48242188 C8.23813971 3.28139398 4.36915887 2.7434285 0 1 C0 0.67 0 0.34 0 0 Z " fill="#95E593" transform="translate(274,38)"/>
<path d="M0 0 C0.99 0 1.98 0 3 0 C-0.88673167 8.62484265 -9.72857487 12.38193262 -18 16 C-22.233605 17.55947378 -25.47509067 18.21547187 -30 18 C-25.18099548 13.02036199 -25.18099548 13.02036199 -20.375 12.9375 C-19.26125 12.958125 -18.1475 12.97875 -17 13 C-16.67 12.01 -16.34 11.02 -16 10 C-14.02 10 -12.04 10 -10 10 C-9.896875 9.401875 -9.79375 8.80375 -9.6875 8.1875 C-8.87621677 5.60614427 -8.11887297 4.66482877 -6 3 C-4.35008418 2.29289322 -2.68437744 1.62056011 -1 1 C-0.67 0.67 -0.34 0.34 0 0 Z " fill="#9EE99E" transform="translate(100,479)"/>
<path d="M0 0 C0 0.66 0 1.32 0 2 C-0.66 2 -1.32 2 -2 2 C-2 2.66 -2 3.32 -2 4 C-8.59249677 7.9301423 -8.59249677 7.9301423 -11.1875 8.375 C-14.25037134 9.43116253 -15.30782748 12.35598043 -17 15 C-20.4 18 -20.4 18 -23 18 C-23 19.32 -23 20.64 -23 22 C-23.99 22 -24.98 22 -26 22 C-26 23.65 -26 25.3 -26 27 C-27.98 27.99 -27.98 27.99 -30 29 C-30 29.99 -30 30.98 -30 32 C-30.66 32 -31.32 32 -32 32 C-31.01 29.03 -30.02 26.06 -29 23 C-28.34 23 -27.68 23 -27 23 C-26.79375 22.319375 -26.5875 21.63875 -26.375 20.9375 C-22.40233693 12.45044708 -9.82529947 0 0 0 Z " fill="#A3ECA3" transform="translate(203,308)"/>
<path d="M0 0 C0.495 0.99 0.495 0.99 1 2 C-0.25 5.0625 -0.25 5.0625 -2 8 C-2.99 8.33 -3.98 8.66 -5 9 C-5.73323796 11.01508358 -5.73323796 11.01508358 -6 13 C-6.66 13 -7.32 13 -8 13 C-8.268125 13.639375 -8.53625 14.27875 -8.8125 14.9375 C-10 17 -10 17 -13 18 C-13 18.66 -13 19.32 -13 20 C-16.49043262 22.39967243 -20.30440438 24.14991644 -24.1328125 25.9375 C-26.0758902 26.92525188 -26.0758902 26.92525188 -27.54296875 28.61328125 C-29 30 -29 30 -32.1875 30.1875 C-33.5796875 30.0946875 -33.5796875 30.0946875 -35 30 C-31.58806906 27.33249036 -28.02906448 25.31689746 -24.21875 23.28125 C-21.94622429 22.03351015 -21.94622429 22.03351015 -19.84375 20.34375 C-18 19 -18 19 -16 19 C-15.67 18.01 -15.34 17.02 -15 16 C-13.3984375 14.4921875 -13.3984375 14.4921875 -11.375 12.875 C-6.87168656 9.07888561 -3.44757387 4.75118774 0 0 Z " fill="#97E896" transform="translate(378,264)"/>
<path d="M0 0 C4.33119773 3.54370723 5.02534443 8.31138541 5.625 13.625 C6.70618135 28.01454088 7.83531882 44.49050139 2 58 C1.34 58 0.68 58 0 58 C0.12117188 57.3608667 0.24234375 56.7217334 0.3671875 56.06323242 C0.92169664 53.10647239 1.46089637 50.14710609 2 47.1875 C2.19078125 46.18267578 2.3815625 45.17785156 2.578125 44.14257812 C4.43305703 33.8410806 4.36390383 24.41394836 2.5625 14.125 C2.42779297 13.3103125 2.29308594 12.495625 2.15429688 11.65625 C1.50328 7.75650011 0.80709893 3.87094051 0 0 Z " fill="#94E893" transform="translate(388,187)"/>
<path d="M0 0 C1.52519276 0.08937803 3.04681929 0.24537146 4.5625 0.4375 C5.38878906 0.53933594 6.21507812 0.64117187 7.06640625 0.74609375 C7.70449219 0.82988281 8.34257812 0.91367187 9 1 C1.19781633 5.21788583 -8.02826069 6.27238128 -16.6875 7.6875 C-17.86227905 7.88460571 -17.86227905 7.88460571 -19.06079102 8.08569336 C-24.43102361 8.9250212 -29.56493697 9.11379494 -35 9 C-33 7 -33 7 -30.8359375 6.8046875 C-29.61777344 6.83949219 -29.61777344 6.83949219 -28.375 6.875 C-27.14910156 6.90207031 -27.14910156 6.90207031 -25.8984375 6.9296875 C-24.95871094 6.96449219 -24.95871094 6.96449219 -24 7 C-24 6.34 -24 5.68 -24 5 C-22.92878906 4.95101563 -21.85757812 4.90203125 -20.75390625 4.8515625 C-19.35674361 4.77654706 -17.9596095 4.7009987 -16.5625 4.625 C-15.85544922 4.5940625 -15.14839844 4.563125 -14.41992188 4.53125 C-12.60760812 4.42719371 -10.80182012 4.22080108 -9 4 C-8.67 3.34 -8.34 2.68 -8 2 C-5.67284 1.62599214 -3.33882138 1.29235267 -1 1 C-0.67 0.67 -0.34 0.34 0 0 Z " fill="#A5E9A8" transform="translate(321,381)"/>
<path d="M0 0 C0 0.99 0 1.98 0 3 C-0.66 3.185625 -1.32 3.37125 -2 3.5625 C-4.92390375 4.96353721 -6.29832047 6.19695491 -8.5625 8.4375 C-13.31483152 12.79001778 -18.67907856 14.22204044 -25 15 C-25.66 14.67 -26.32 14.34 -27 14 C-24.33601004 12.41213132 -21.66832472 10.83057172 -19 9.25 C-18.25621094 8.8065625 -17.51242188 8.363125 -16.74609375 7.90625 C-3.37522978 0 -3.37522978 0 0 0 Z " fill="#94E893" transform="translate(145,58)"/>
<path d="M0 0 C0.33 0.66 0.66 1.32 1 2 C1.99 1.67 2.98 1.34 4 1 C4 1.66 4 2.32 4 3 C4.60360352 2.96970703 5.20720703 2.93941406 5.82910156 2.90820312 C27.98908797 1.80991939 27.98908797 1.80991939 38 2 C38 2.33 38 2.66 38 3 C25.76471022 5.67646964 13.45197224 5.19791617 1 5 C0.67 3.35 0.34 1.7 0 0 Z " fill="#ABE9AB" transform="translate(32,495)"/>
<path d="M0 0 C-0.33 0.66 -0.66 1.32 -1 2 C-2.98 2 -4.96 2 -7 2 C-7 2.66 -7 3.32 -7 4 C-8.7634375 4.433125 -8.7634375 4.433125 -10.5625 4.875 C-15.50812008 6.11358563 -20.40591698 7.40612593 -25.1875 9.1875 C-28.13898252 10.04015051 -29.16269724 9.85665886 -32 9 C-5.16786787 -1.66854927 -5.16786787 -1.66854927 0 0 Z " fill="#A3E7A1" transform="translate(183,45)"/>
<path d="M0 0 C2 2 2 2 2 5 C2.63808594 4.91621094 3.27617187 4.83242188 3.93359375 4.74609375 C4.75988281 4.64425781 5.58617187 4.54242188 6.4375 4.4375 C7.26121094 4.33308594 8.08492187 4.22867187 8.93359375 4.12109375 C9.61550781 4.08113281 10.29742187 4.04117187 11 4 C11.33 4.33 11.66 4.66 12 5 C14.59153107 5.15996166 17.1595202 5.25938697 19.75390625 5.31640625 C20.52935287 5.33718735 21.3047995 5.35796844 22.10374451 5.37937927 C24.58990308 5.44495802 27.07617045 5.50379799 29.5625 5.5625 C31.24415204 5.60567733 32.92579294 5.64929136 34.60742188 5.69335938 C38.73816871 5.80064779 42.86902536 5.90189132 47 6 C47 6.33 47 6.66 47 7 C40.46721214 7.02527002 33.93443679 7.04283292 27.40161133 7.05493164 C25.17732268 7.05997317 22.95303737 7.06680623 20.72875977 7.07543945 C17.53921691 7.08751298 14.34971771 7.09322996 11.16015625 7.09765625 C9.65860741 7.10539818 9.65860741 7.10539818 8.12672424 7.11329651 C7.20584518 7.11337204 6.28496613 7.11344757 5.33618164 7.11352539 C4.11373497 7.11685631 4.11373497 7.11685631 2.86659241 7.12025452 C1 7 1 7 0 6 C-0.04080783 4.00041636 -0.04254356 1.99954746 0 0 Z " fill="#8AE489" transform="translate(169,383)"/>
<path d="M0 0 C0.33 0 0.66 0 1 0 C1.40781295 8.00899328 0.180596 15.31249968 -1.5 23.125 C-1.73847656 24.27226562 -1.97695313 25.41953125 -2.22265625 26.6015625 C-2.80629317 29.40301971 -3.39888365 32.20225103 -4 35 C-4.33 35 -4.66 35 -5 35 C-5.05384521 32.70858714 -5.09272087 30.41681812 -5.125 28.125 C-5.14820313 26.84882813 -5.17140625 25.57265625 -5.1953125 24.2578125 C-5 21 -5 21 -3 19 C-2.60902385 16.07946826 -2.60902385 16.07946826 -2.5 12.75 C-2.28694228 8.12664738 -1.63107252 4.34075751 0 0 Z " fill="#A2E6A1" transform="translate(457,225)"/>
<path d="M0 0 C0.99 0.33 1.98 0.66 3 1 C-0.06077771 4.84783484 -2.94042579 8.14732623 -7 11 C-7.66 11 -8.32 11 -9 11 C-9.20625 11.5775 -9.4125 12.155 -9.625 12.75 C-11.49750888 15.81410544 -13.96958519 17.15539968 -17 19 C-16.67 17.35 -16.34 15.7 -16 14 C-15.01 14 -14.02 14 -13 14 C-12.34 12.35 -11.68 10.7 -11 9 C-9.68 9 -8.36 9 -7 9 C-7 8.01 -7 7.02 -7 6 C-6.34 6 -5.68 6 -5 6 C-5 5.34 -5 4.68 -5 4 C-4.01 4 -3.02 4 -2 4 C-2 3.01 -2 2.02 -2 1 C-1.34 0.67 -0.68 0.34 0 0 Z " fill="#A6EAA6" transform="translate(407,332)"/>
<path d="M0 0 C0.66 0.66 1.32 1.32 2 2 C-0.10034847 3.65091584 -2.20495833 5.29581238 -4.3125 6.9375 C-4.90740234 7.40607422 -5.50230469 7.87464844 -6.11523438 8.35742188 C-8.72700884 10.38555959 -10.83892403 11.94630801 -14 13 C-15.20882096 15.00016466 -15.20882096 15.00016466 -16 17 C-16.66 17 -17.32 17 -18 17 C-18.66 18.32 -19.32 19.64 -20 21 C-21 18 -21 18 -20 15 C-18.68 15 -17.36 15 -16 15 C-15.67 13.68 -15.34 12.36 -15 11 C-14.01 11 -13.02 11 -12 11 C-12.33 10.01 -12.66 9.02 -13 8 C-12.278125 7.7525 -11.55625 7.505 -10.8125 7.25 C-7.88432515 6.09414485 -7.88432515 6.09414485 -5.375 3.875 C-3 2 -3 2 0 2 C0 1.34 0 0.68 0 0 Z " fill="#98E696" transform="translate(160,145)"/>
<path d="M0 0 C6.40217277 6.01583476 10.33254038 14.10085619 14 22 C14 22.66 14 23.32 14 24 C13.01 23.67 12.02 23.34 11 23 C10.67 21.35 10.34 19.7 10 18 C9.01 17.67 8.02 17.34 7 17 C4.0799155 13.18142796 3.46359512 9.72867022 3 5 C2.01 4.67 1.02 4.34 0 4 C0 2.68 0 1.36 0 0 Z " fill="#9FE59C" transform="translate(428,116)"/>
<path d="M0 0 C-2.06328016 2.2303265 -3.97701464 3.68051002 -6.6875 5.04296875 C-7.73550781 5.56987305 -7.73550781 5.56987305 -8.8046875 6.10742188 C-9.89136719 6.64206055 -9.89136719 6.64206055 -11 7.1875 C-12.08667969 7.73954102 -12.08667969 7.73954102 -13.1953125 8.30273438 C-14.24332031 8.82383789 -14.24332031 8.82383789 -15.3125 9.35546875 C-15.94800781 9.67153076 -16.58351563 9.98759277 -17.23828125 10.31323242 C-19 11 -19 11 -22 11 C-22 10.34 -22 9.68 -22 9 C-20.68 9 -19.36 9 -18 9 C-17.67 8.01 -17.34 7.02 -17 6 C-14.453125 4.39453125 -14.453125 4.39453125 -11.25 2.8125 C-9.67992187 2.01779297 -9.67992187 2.01779297 -8.078125 1.20703125 C-5.08779709 0.03442805 -3.16595336 -0.26382945 0 0 Z " fill="#A0E8A1" transform="translate(370,364)"/>
<path d="M0 0 C0.33 1.32 0.66 2.64 1 4 C-2.98129078 6.96645195 -6.36942447 9.19922063 -11 11 C-11.474375 11.53625 -11.94875 12.0725 -12.4375 12.625 C-14 14 -14 14 -17.1875 14.1875 C-18.115625 14.125625 -19.04375 14.06375 -20 14 C-16.58806906 11.33249036 -13.02906448 9.31689746 -9.21875 7.28125 C-6.94622429 6.03351015 -6.94622429 6.03351015 -4.84375 4.34375 C-3 3 -3 3 -1 3 C-0.67 2.01 -0.34 1.02 0 0 Z " fill="#AAEAA7" transform="translate(363,280)"/>
<path d="M0 0 C11.86816556 7.58916709 11.86816556 7.58916709 16 12 C16 12.66 16 13.32 16 14 C13.625 13.8125 13.625 13.8125 11 13 C9.6875 10.4375 9.6875 10.4375 9 8 C7.68 8 6.36 8 5 8 C4.67 6.68 4.34 5.36 4 4 C2.68 3.67 1.36 3.34 0 3 C0 2.01 0 1.02 0 0 Z " fill="#A2E5A2" transform="translate(386,72)"/>
<path d="M0 0 C1.2065625 0.0309375 1.2065625 0.0309375 2.4375 0.0625 C-0.54628217 2.50569105 -3.38960095 3.97049314 -7 5.3125 C-7.92683594 5.66828125 -8.85367187 6.0240625 -9.80859375 6.390625 C-12.80802548 7.12240125 -14.62063173 6.89540644 -17.5625 6.0625 C-16.2425 4.4125 -14.9225 2.7625 -13.5625 1.0625 C-13.5625 1.7225 -13.5625 2.3825 -13.5625 3.0625 C-11.91578588 2.75467504 -10.27014424 2.44110766 -8.625 2.125 C-7.70847656 1.95097656 -6.79195313 1.77695312 -5.84765625 1.59765625 C-3.05499644 0.94364874 -2.95318379 0.07202887 0 0 Z " fill="#92EB91" transform="translate(345.5625,374.9375)"/>
<path d="M0 0 C5.98511371 0.34302035 10.75117306 0.82307843 16 4 C16 4.66 16 5.32 16 6 C18.475 6.495 18.475 6.495 21 7 C20.67 7.99 20.34 8.98 20 10 C19.47792969 9.68546875 18.95585937 9.3709375 18.41796875 9.046875 C12.49597126 5.60361201 6.48890695 3.17105485 0 1 C0 0.67 0 0.34 0 0 Z " fill="#96E596" transform="translate(331,134)"/>
<path d="M0 0 C0.73154297 0.01353516 1.46308594 0.02707031 2.21679688 0.04101562 C3.99902422 0.07596126 5.78086573 0.12975195 7.5625 0.1875 C7.5625 0.5175 7.5625 0.8475 7.5625 1.1875 C6.82386719 1.30867187 6.08523437 1.42984375 5.32421875 1.5546875 C-1.60909861 2.69996229 -8.52755 3.90888721 -15.4375 5.1875 C-15.4375 4.5275 -15.4375 3.8675 -15.4375 3.1875 C-10.04113825 0.48577355 -5.99148437 -0.21378581 0 0 Z " fill="#99E497" transform="translate(201.4375,129.8125)"/>
<path d="M0 0 C0.66 0 1.32 0 2 0 C1.45318976 5.00600922 -0.24140333 8.97181067 -2.5625 13.375 C-2.89185547 14.01566406 -3.22121094 14.65632813 -3.56054688 15.31640625 C-4.36639482 16.88138632 -5.18218493 18.44124021 -6 20 C-6.33 20 -6.66 20 -7 20 C-7.20140476 16.37471432 -6.85776765 14.13498292 -5 11 C-4.34 11 -3.68 11 -3 11 C-2.87625 10.113125 -2.7525 9.22625 -2.625 8.3125 C-2.05587264 5.29612498 -1.23385564 2.79673946 0 0 Z " fill="#A3EAA1" transform="translate(444,276)"/>
<path d="M0 0 C0.33 0.66 0.66 1.32 1 2 C-1.33333333 4.33333333 -3.66666667 6.66666667 -6 9 C-6.33 9.66 -6.66 10.32 -7 11 C-9.32156597 11.40729228 -11.6568787 11.74438677 -14 12 C-13.34 11.01 -12.68 10.02 -12 9 C-11.34 9 -10.68 9 -10 9 C-10 8.34 -10 7.68 -10 7 C-7.8125 5.2734375 -7.8125 5.2734375 -5 3.375 C-4.071875 2.74335937 -3.14375 2.11171875 -2.1875 1.4609375 C-1.1046875 0.73777344 -1.1046875 0.73777344 0 0 Z " fill="#9FE9A0" transform="translate(117,73)"/>
<path d="M0 0 C0.33 0 0.66 0 1 0 C0.97337827 7.24111022 0.09873626 11.96494006 -4.52734375 17.63671875 C-6 19 -6 19 -8 19 C-7.67 17.68 -7.34 16.36 -7 15 C-6.34 15 -5.68 15 -5 15 C-4.896875 14.319375 -4.79375 13.63875 -4.6875 12.9375 C-3.86157719 9.4085571 -2.46990238 6.30728035 -1 3 C-0.67 2.01 -0.34 1.02 0 0 Z " fill="#A2E9A1" transform="translate(387,245)"/>
<path d="M0 0 C0.33 0 0.66 0 1 0 C1.55353075 15.74487472 1.55353075 15.74487472 -2 23 C-2.66 23 -3.32 23 -4 23 C-2.68 15.41 -1.36 7.82 0 0 Z " fill="#9EE9A0" transform="translate(392,222)"/>
<path d="M0 0 C0.66 0 1.32 0 2 0 C0.59601721 4.10110762 -1.37087038 6.98089159 -4.125 10.3125 C-4.84945313 11.19550781 -5.57390625 12.07851563 -6.3203125 12.98828125 C-7.15175781 13.98408203 -7.15175781 13.98408203 -8 15 C-9.24546405 12.50907189 -8.7767578 11.58919267 -8 9 C-7.34 9 -6.68 9 -6 9 C-5.71125 8.401875 -5.4225 7.80375 -5.125 7.1875 C-4 5 -4 5 -2 2 C-1.34 2 -0.68 2 0 2 C0 1.34 0 0.68 0 0 Z " fill="#97E896" transform="translate(428,307)"/>
<path d="M0 0 C0 0.66 0 1.32 0 2 C-0.66 2 -1.32 2 -2 2 C-2 2.66 -2 3.32 -2 4 C-6.65474354 6.84984298 -10.70139194 8.7023817 -16 10 C-12.15364338 5.6573393 -6.12239358 0 0 0 Z " fill="#ABEBA9" transform="translate(203,308)"/>
<path d="M0 0 C0.66 0 1.32 0 2 0 C1.55125386 5.31409898 0.75942344 9.9416576 -1 15 C-1.37531446 17.32694964 -1.71917202 19.65976685 -2 22 C-2.33 22 -2.66 22 -3 22 C-3 17.05 -3 12.1 -3 7 C-2.01 6.67 -1.02 6.34 0 6 C0 4.02 0 2.04 0 0 Z " fill="#96E295" transform="translate(34,209)"/>
<path d="M0 0 C7.44230094 0.54701632 14.68160944 1.54198409 22 3 C22 3.33 22 3.66 22 4 C7.94411516 4.21083827 7.94411516 4.21083827 2 3 C1.34 2.01 0.68 1.02 0 0 Z " fill="#B1E9B4" transform="translate(304,40)"/>
<path d="M0 0 C3.38818502 1.43605193 5.3186598 3.20466579 7.6875 6 C8.28949219 6.70125 8.89148438 7.4025 9.51171875 8.125 C11 10 11 10 12 12 C9.0625 11.1875 9.0625 11.1875 6 10 C5.67 9.01 5.34 8.02 5 7 C4.34 6.71125 3.68 6.4225 3 6.125 C1 5 1 5 0.25 2.375 C0.1675 1.59125 0.085 0.8075 0 0 Z " fill="#9FE49E" transform="translate(406,90)"/>
<path d="M0 0 C0.99 0.33 1.98 0.66 3 1 C1.625 3 1.625 3 0 5 C-0.66 5 -1.32 5 -2 5 C-2.28875 5.639375 -2.5775 6.27875 -2.875 6.9375 C-4 9 -4 9 -6 10 C-6.625 7.6875 -6.625 7.6875 -7 5 C-6.34 4.01 -5.68 3.02 -5 2 C-3.35 2.33 -1.7 2.66 0 3 C0 2.01 0 1.02 0 0 Z " fill="#94E794" transform="translate(416,322)"/>
<path d="M0 0 C3 0 3 0 4.5703125 1.50390625 C8.02860367 6.08310084 9.7597466 9.23391841 10 15 C7.35705936 12.60236223 5.67473797 10.00790723 3.875 6.9375 C3.35679687 6.05964844 2.83859375 5.18179688 2.3046875 4.27734375 C1.49959547 2.87204839 0.72429666 1.44859331 0 0 Z " fill="#96E896" transform="translate(375,164)"/>
<path d="M0 0 C5.34302824 1.50700797 10.46195831 3.78037885 15 7 C15.33 7.99 15.66 8.98 16 10 C12.35524815 8.63649571 9.08755513 6.998536 5.75 5 C4.44289063 4.2265625 4.44289063 4.2265625 3.109375 3.4375 C1 2 1 2 0 0 Z " fill="#99E499" transform="translate(355,54)"/>
<path d="M0 0 C-3.26737303 3.26737303 -6.83168198 3.95672896 -11.375 4.125 C-12.24125 4.08375 -13.1075 4.0425 -14 4 C-8.90026682 -1.26972429 -7.04819215 -1.02312467 0 0 Z " fill="#A0E89F" transform="translate(84,493)"/>
<path d="M0 0 C0.99 0.33 1.98 0.66 3 1 C-0.06093224 4.93548431 -2.49115974 7.68116787 -7 10 C-7 8.68 -7 7.36 -7 6 C-6.34 6 -5.68 6 -5 6 C-5 5.34 -5 4.68 -5 4 C-4.01 4 -3.02 4 -2 4 C-2 3.01 -2 2.02 -2 1 C-1.34 0.67 -0.68 0.34 0 0 Z " fill="#9EE59C" transform="translate(407,332)"/>
<path d="M0 0 C1.32 0.33 2.64 0.66 4 1 C3.01 1.33 2.02 1.66 1 2 C0.26676204 4.01508358 0.26676204 4.01508358 0 6 C-0.66 6 -1.32 6 -2 6 C-2.28875 6.78375 -2.5775 7.5675 -2.875 8.375 C-4 11 -4 11 -6 13 C-6 11.35 -6 9.7 -6 8 C-5.34 8 -4.68 8 -4 8 C-3.71125 7.236875 -3.4225 6.47375 -3.125 5.6875 C-2 3 -2 3 0 0 Z " fill="#A7E9A4" transform="translate(134,168)"/>
<path d="M0 0 C0.99 0.33 1.98 0.66 3 1 C1.2126038 2.33905267 -0.58004953 3.67109066 -2.375 5 C-3.37273437 5.7425 -4.37046875 6.485 -5.3984375 7.25 C-8 9 -8 9 -10 9 C-10 8.01 -10 7.02 -10 6 C-8.68 6 -7.36 6 -6 6 C-5.67 5.01 -5.34 4.02 -5 3 C-4.01 3 -3.02 3 -2 3 C-2 2.34 -2 1.68 -2 1 C-1.34 0.67 -0.68 0.34 0 0 Z " fill="#A8E9A8" transform="translate(382,354)"/>
<path d="M0 0 C0.99 0.33 1.98 0.66 3 1 C0.61042731 4.24299151 -1.2047869 6.50902342 -5 8 C-4.66275164 4.88045262 -4.3790035 3.3790035 -2.125 1.125 C-1.42375 0.75375 -0.7225 0.3825 0 0 Z " fill="#9CE89D" transform="translate(186,318)"/>
<path d="M0 0 C0.66 0 1.32 0 2 0 C0.54955729 4.10958767 -1.51110752 7.43258745 -4 11 C-5 8 -5 8 -3.6875 4.9375 C-2 2 -2 2 0 0 Z " fill="#9CE79A" transform="translate(435,296)"/>
<path d="M0 0 C1.10652097 3.31956291 0.95237748 3.88796417 -0.25 7 C-0.62898438 8.0209375 -0.62898438 8.0209375 -1.015625 9.0625 C-2.07347158 11.14461073 -3.27220115 12.44692239 -5 14 C-4.54857225 12.22739369 -4.08859477 10.4569632 -3.625 8.6875 C-3.36976562 7.70136719 -3.11453125 6.71523437 -2.8515625 5.69921875 C-2 3 -2 3 0 0 Z " fill="#A4E7A5" transform="translate(46,162)"/>
<path d="M0 0 C9.59453303 5.0022779 9.59453303 5.0022779 13 9 C8.15833214 8.54961229 5.50331713 7.40027839 2 4 C2 3.34 2 2.68 2 2 C1.34 2 0.68 2 0 2 C0 1.34 0 0.68 0 0 Z " fill="#A5E6A5" transform="translate(373,63)"/>
<path d="M0 0 C0.99 0 1.98 0 3 0 C2.34 1.32 1.68 2.64 1 4 C-0.98 4 -2.96 4 -5 4 C-5 4.99 -5 5.98 -5 7 C-6.32 6.67 -7.64 6.34 -9 6 C-6.63672401 3.26357517 -4.36305523 2.23902035 -1 1 C-0.67 0.67 -0.34 0.34 0 0 Z " fill="#94E78C" transform="translate(100,479)"/>
<path d="M0 0 C0.99 0.495 0.99 0.495 2 1 C1.01 1.495 1.01 1.495 0 2 C0 1.34 0 0.68 0 0 Z M-3 3 C-1.02 3.495 -1.02 3.495 1 4 C0.75 5.875 0.75 5.875 0 8 C-2.0625 9.25 -2.0625 9.25 -4 10 C-3.67 7.69 -3.34 5.38 -3 3 Z " fill="#89E989" transform="translate(389,344)"/>
<path d="M0 0 C0.33 0.99 0.66 1.98 1 3 C-0.30135125 4.69175663 -1.63755204 6.35704805 -3 8 C-3.77833534 10.18214568 -3.77833534 10.18214568 -4 12 C-5.32 12.33 -6.64 12.66 -8 13 C-5.76028993 8.34829446 -3.17089436 4.07686417 0 0 Z " fill="#A5E8A3" transform="translate(72,116)"/>
<path d="M0 0 C0.66 0.33 1.32 0.66 2 1 C-2.36988258 4.5895464 -5.66467599 5.13599111 -11.25 5.0625 C-12.14203125 5.05347656 -13.0340625 5.04445313 -13.953125 5.03515625 C-14.62859375 5.02355469 -15.3040625 5.01195312 -16 5 C-16 4.67 -16 4.34 -16 4 C-15.26394531 3.87882812 -14.52789062 3.75765625 -13.76953125 3.6328125 C-12.79371094 3.46523438 -11.81789063 3.29765625 -10.8125 3.125 C-9.84957031 2.96257812 -8.88664062 2.80015625 -7.89453125 2.6328125 C-4.97381476 2.08328833 -4.97381476 2.08328833 -2.26171875 0.8671875 C-1.51535156 0.58101563 -0.76898438 0.29484375 0 0 Z " fill="#AAE7AA" transform="translate(338,295)"/>
<path d="M0 0 C2 3 2 3 1.828125 5.15625 C1.63734375 5.9296875 1.4465625 6.703125 1.25 7.5 C0.97929687 8.66015625 0.97929687 8.66015625 0.703125 9.84375 C0 12 0 12 -2 15 C-1.85973717 12.68715544 -1.71264442 10.37472409 -1.5625 8.0625 C-1.48128906 6.77472656 -1.40007812 5.48695313 -1.31640625 4.16015625 C-1 1 -1 1 0 0 Z " fill="#A2EA9F" transform="translate(450,257)"/>
<path d="M0 0 C0.66 0.33 1.32 0.66 2 1 C0.02 5.29 -1.96 9.58 -4 14 C-4.33 14 -4.66 14 -5 14 C-5.43200679 9.24792529 -3.98489083 6.21789302 -2 2 C-1.34 2 -0.68 2 0 2 C0 1.34 0 0.68 0 0 Z " fill="#A3EAA3" transform="translate(125,183)"/>
<path d="M0 0 C1.97566188 1.97566188 2.89579072 3.52337094 4.125 6 C4.47820312 6.70125 4.83140625 7.4025 5.1953125 8.125 C6 10 6 10 6 12 C5.01 11.67 4.02 11.34 3 11 C2.67 9.35 2.34 7.7 2 6 C1.01 5.67 0.02 5.34 -1 5 C-0.67 3.35 -0.34 1.7 0 0 Z " fill="#A6E8A6" transform="translate(436,128)"/>
<path d="M0 0 C4.55737263 0.43820891 7.57653445 0.85041169 11 4 C8.03 4 5.06 4 2 4 C1.34 2.68 0.68 1.36 0 0 Z " fill="#9DE49C" transform="translate(336,47)"/>
<path d="M0 0 C1.52519276 0.08937803 3.04681929 0.24537146 4.5625 0.4375 C5.38878906 0.53933594 6.21507812 0.64117187 7.06640625 0.74609375 C7.70449219 0.82988281 8.34257812 0.91367187 9 1 C5.40537669 3.25998595 2.43404325 3.20868087 -1.75 3.125 C-2.92046875 3.10695313 -4.0909375 3.08890625 -5.296875 3.0703125 C-6.63492187 3.03550781 -6.63492187 3.03550781 -8 3 C-8 2.67 -8 2.34 -8 2 C-6.865625 1.855625 -5.73125 1.71125 -4.5625 1.5625 C-1.19222799 1.38828522 -1.19222799 1.38828522 0 0 Z " fill="#98E997" transform="translate(321,381)"/>
<path d="M0 0 C1.2380014 3.57644848 0.74926071 6.33694766 0 10 C-1.32 10 -2.64 10 -4 10 C-2.8905928 6.51329166 -1.73662334 3.22515763 0 0 Z " fill="#A0EAA0" transform="translate(51,150)"/>
<path d="M0 0 C1 4 1 4 0.22265625 5.921875 C-0.8515625 7.61458333 -1.92578125 9.30729167 -3 11 C-3.99 10.67 -4.98 10.34 -6 10 C-4.02 6.7 -2.04 3.4 0 0 Z " fill="#A6E9A6" transform="translate(61,132)"/>
<path d="M0 0 C1.37478516 0.01740234 1.37478516 0.01740234 2.77734375 0.03515625 C3.69644531 0.04417969 4.61554688 0.05320312 5.5625 0.0625 C6.27277344 0.07410156 6.98304688 0.08570313 7.71484375 0.09765625 C4.4487068 2.01067932 1.72039127 2.45440286 -2.03515625 2.72265625 C-3.02 2.79742187 -4.00484375 2.8721875 -5.01953125 2.94921875 C-5.7671875 2.99820312 -6.51484375 3.0471875 -7.28515625 3.09765625 C-6.64578125 2.78828125 -6.00640625 2.47890625 -5.34765625 2.16015625 C-1.25884046 0.0537966 -1.25884046 0.0537966 0 0 Z " fill="#B1E8B2" transform="translate(315.28515625,383.90234375)"/>
<path d="M0 0 C-3.64116773 3.33773709 -7.28607242 3.97864902 -12 5 C-12 4.34 -12 3.68 -12 3 C-4.71428571 -0.42857143 -4.71428571 -0.42857143 0 0 Z " fill="#A9E8AC" transform="translate(348,375)"/>
<path d="M0 0 C1.32 0.33 2.64 0.66 4 1 C3.67 1.99 3.34 2.98 3 4 C0.03 4 -2.94 4 -6 4 C-6 3.67 -6 3.34 -6 3 C-4.35 3 -2.7 3 -1 3 C-0.67 2.01 -0.34 1.02 0 0 Z " fill="#90E593" transform="translate(84,489)"/>
<path d="M0 0 C0.66 0 1.32 0 2 0 C0.68775452 3.93673644 -0.91910327 6.22719294 -4 9 C-4 7.68 -4 6.36 -4 5 C-3.34 5 -2.68 5 -2 5 C-1.34 3.35 -0.68 1.7 0 0 Z " fill="#A6E8A6" transform="translate(107,470)"/>
<path d="M0 0 C-4.30769231 3.93846154 -4.30769231 3.93846154 -7.8125 4.25 C-8.534375 4.1675 -9.25625 4.085 -10 4 C-6.58908673 0.88145073 -4.68377325 -0.53528837 0 0 Z " fill="#8DE68D" transform="translate(347,294)"/>
<path d="M0 0 C0.66 0 1.32 0 2 0 C1.34 3.3 0.68 6.6 0 10 C-0.33 10 -0.66 10 -1 10 C-1.02689216 8.52093108 -1.04634621 7.04172517 -1.0625 5.5625 C-1.07410156 4.73878906 -1.08570312 3.91507812 -1.09765625 3.06640625 C-1 1 -1 1 0 0 Z " fill="#A1E8A1" transform="translate(110,459)"/>
<path d="M0 0 C0.66 0 1.32 0 2 0 C0.8141763 3.37503669 -0.27573689 5.64722731 -3 8 C-2.67 6.02 -2.34 4.04 -2 2 C-1.34 2 -0.68 2 0 2 C0 1.34 0 0.68 0 0 Z " fill="#B0E9B0" transform="translate(428,307)"/>
<path d="M0 0 C5.75 0.75 5.75 0.75 8 3 C6 4 6 4 2.875 3.0625 C1.92625 2.711875 0.9775 2.36125 0 2 C0 1.34 0 0.68 0 0 Z " fill="#A1E79F" transform="translate(347,51)"/>
<path d="M0 0 C1.65 0 3.3 0 5 0 C5 0.66 5 1.32 5 2 C6.65 2 8.3 2 10 2 C10 2.33 10 2.66 10 3 C8.72125 3.061875 7.4425 3.12375 6.125 3.1875 C5.40570313 3.22230469 4.68640625 3.25710937 3.9453125 3.29296875 C3.30335938 3.19628906 2.66140625 3.09960938 2 3 C1.34 2.01 0.68 1.02 0 0 Z " fill="#9FE99F" transform="translate(304,40)"/>
</svg>
